<?xml version="1.0" encoding="utf-8"?>
<svg width="117px" height="117px" viewBox="0 0 117 117" version="1.1" xmlns:xlink="http://www.w3.org/1999/xlink" xmlns="http://www.w3.org/2000/svg">
  <g id="Group-12">
    <g id="Group-10">
      <path d="M0 58.5C0 26.1913 26.1913 0 58.5 0C90.8087 0 117 26.1913 117 58.5C117 90.8087 90.8087 117 58.5 117C26.1913 117 0 90.8087 0 58.5Z" id="Oval-Copy-7" fill="#128C7E" fill-rule="evenodd" stroke="none" />
      <g id="vuesaxbrokenlike" fill-opacity="1" transform="translate(46.5 46.5)">
        <path d="M24 0L24 0L24 24L0 24L0 0L24 0Z" id="vuesaxbrokenlike" fill="none" stroke="none" />
        <g id="vuesaxbrokenlike">
          <g id="like">
            <path d="M21.4805 11.95C21.9805 10.55 21.0805 9.34997 19.5805 9.34997L15.5805 9.34997C14.9805 9.34997 14.4805 8.84997 14.5805 8.14997L15.0805 4.94997C15.2805 4.04997 14.6805 3.04997 13.7805 2.74997C12.9805 2.44997 11.9805 2.84997 11.5805 3.44997L7.48047 9.54997" id="Vector" fill="none" stroke="#FCFF6A" stroke-width="1.5" stroke-linecap="round" stroke-linejoin="round" />
            <path d="M7.48047 18.35L10.5805 20.75C10.9805 21.15 11.8805 21.35 12.4805 21.35L16.2805 21.35C17.4805 21.35 18.7805 20.45 19.0805 19.25L20.3205 15.48" id="Vector" fill="none" stroke="#FCFF6A" stroke-width="1.5" stroke-linecap="round" stroke-linejoin="round" />
            <path d="M2.38086 8.55002C2.38086 7.15002 2.98086 6.65002 4.38086 6.65002L5.38086 6.65002C6.78086 6.65002 7.38086 7.15002 7.38086 8.55002L7.38086 18.35C7.38086 19.75 6.78086 20.25 5.38086 20.25L4.38086 20.25C2.98086 20.25 2.38086 19.75 2.38086 18.35L2.38086 8.55002Z" id="Vector" fill="none" stroke="#FCFF6A" stroke-width="1.5" stroke-linecap="round" stroke-linejoin="round" />
            <path d="M24 0L24 24L0 24L0 0L24 0Z" id="Vector" fill="none" fill-rule="evenodd" stroke="none" />
          </g>
        </g>
      </g>
    </g>
  </g>
</svg>